<svg version="1.2" xmlns="http://www.w3.org/2000/svg" viewBox="0 0 505 505" width="505" height="505"><defs><linearGradient id="P" gradientUnits="userSpaceOnUse"/><linearGradient id="g1" x1="598.6" y1="252.1" x2="272.3" y2="252.1" href="#P"><stop offset="0" stop-color="#c3a504"/><stop offset="0" stop-color="#c3a504"/><stop offset=".4" stop-color="#d49c2c"/><stop offset=".6" stop-color="#f1c72b"/><stop offset=".7" stop-color="#f3ca2b"/><stop offset="1" stop-color="#f3ca2b"/></linearGradient><linearGradient id="g2" x1="317.2" y1="464" x2="432.2" y2="172.2" href="#P"><stop offset="0" stop-color="#c3a504"/><stop offset="0" stop-color="#c3a504"/><stop offset=".4" stop-color="#d49c2c"/><stop offset=".6" stop-color="#f1c72b"/><stop offset=".7" stop-color="#f3ca2b"/><stop offset="1" stop-color="#f3ca2b"/></linearGradient><linearGradient id="g3" x1="-3" y1="252.1" x2="253.8" y2="252.1" href="#P"><stop offset="0" stop-color="#c3a504"/><stop offset="0" stop-color="#c3a504"/><stop offset=".4" stop-color="#d49c2c"/><stop offset=".6" stop-color="#f1c72b"/><stop offset=".7" stop-color="#f3ca2b"/><stop offset="1" stop-color="#f3ca2b"/></linearGradient><linearGradient id="g4" x1="198.7" y1="503.4" x2="84.8" y2="199.3" href="#P"><stop offset="0" stop-color="#c3a504"/><stop offset="0" stop-color="#c3a504"/><stop offset=".4" stop-color="#d49c2c"/><stop offset=".6" stop-color="#f1c72b"/><stop offset=".7" stop-color="#f3ca2b"/><stop offset="1" stop-color="#f3ca2b"/></linearGradient><linearGradient id="g5" x1="625.3" y1="549.1" x2="22.8" y2="222.9" href="#P"><stop offset="0" stop-color="#c3a504"/><stop offset="0" stop-color="#c3a504"/><stop offset=".4" stop-color="#d49c2c"/><stop offset=".6" stop-color="#f1c72b"/><stop offset=".7" stop-color="#f3ca2b"/><stop offset="1" stop-color="#f3ca2b"/></linearGradient><linearGradient id="g6" x1="40" y1="317.2" x2="332" y2="432.2" href="#P"><stop offset="0" stop-color="#c3a504"/><stop offset="0" stop-color="#c3a504"/><stop offset=".4" stop-color="#d49c2c"/><stop offset=".6" stop-color="#f1c72b"/><stop offset=".7" stop-color="#f3ca2b"/><stop offset="1" stop-color="#f3ca2b"/></linearGradient><linearGradient id="g7" x1=".7" y1="198.7" x2="304.8" y2="84.8" href="#P"><stop offset="0" stop-color="#c3a504"/><stop offset="0" stop-color="#c3a504"/><stop offset=".4" stop-color="#d49c2c"/><stop offset=".6" stop-color="#f1c72b"/><stop offset=".7" stop-color="#f3ca2b"/><stop offset="1" stop-color="#f3ca2b"/></linearGradient><linearGradient id="g8" x1="184.1" y1="198.7" x2="488.3" y2="84.8" href="#P"><stop offset="0" stop-color="#c3a504"/><stop offset="0" stop-color="#c3a504"/><stop offset=".4" stop-color="#d49c2c"/><stop offset=".6" stop-color="#f1c72b"/><stop offset=".7" stop-color="#f3ca2b"/><stop offset="1" stop-color="#f3ca2b"/></linearGradient></defs><style>.a{fill:url(#g1)}.b{fill:url(#g2)}.c{fill:url(#g3)}.d{fill:url(#g4)}.e{fill:url(#g5)}.f{fill:url(#g6)}.g{fill:url(#g7)}.h{fill:url(#g8)}</style><path class="a" d="m367 252.1l-114.9-115 68.5-68.5 183.5 183.5-183.5 183.5-68.5-68.6z"/><path class="b" d="m504.1 252.1l-183.5 183.5-68.5-68.6 114.9-114.9"/><path class="c" d="m252.1 367l-68.6 68.6-183.5-183.5 183.5-183.5 68.6 68.5-115 115z"/><path class="d" d="m137.1 252.1l115 114.9-68.6 68.6-183.5-183.5"/><path class="e" d="m252.1 367l114.9-114.9 68.6 68.5-183.5 183.5-183.5-183.5 68.5-68.5z"/><path class="f" d="m252.1 504.1l-183.5-183.5 68.5-68.5 115 114.9"/><path class="g" d="m252.1 137.1l-115 115-68.5-68.6 183.5-183.5"/><path class="h" d="m252 0l183.5 183.5-68.6 68.6-114.9-115"/></svg>